<svg xmlns="http://www.w3.org/2000/svg" viewBox="0 0 1170 240" role="img" aria-label="CSV converter flow" font-family="-apple-system, BlinkMacSystemFont, 'Segoe UI', Roboto, sans-serif">
  <defs>
    <marker id="ah" viewBox="0 0 10 10" refX="9" refY="5" markerWidth="7" markerHeight="7" orient="auto-start-reverse">
      <path d="M0,0 L10,5 L0,10 z" fill="#8a98a8"/>
    </marker>
  </defs>
  <line x1="190" y1="120" x2="380" y2="120" stroke="#8a98a8" stroke-width="1.7" marker-end="url(#ah)"/>
  <line x1="550" y1="120" x2="680" y2="120" stroke="#8a98a8" stroke-width="1.7" marker-end="url(#ah)"/>
  <line x1="850" y1="120" x2="980" y2="50" stroke="#8a98a8" stroke-width="1.7" marker-end="url(#ah)"/>
  <line x1="850" y1="120" x2="980" y2="190" stroke="#8a98a8" stroke-width="1.7" marker-end="url(#ah)"/>
  <rect x="20" y="95.0" width="170" height="50" rx="7" fill="#eaf1fb" stroke="#3b6fb0" stroke-width="1.5"/><text x="105" y="120" text-anchor="middle" dominant-baseline="central" font-size="14" fill="#1f2d3d">.edm4eic.root files</text>
  <rect x="380" y="95.0" width="170" height="50" rx="7" fill="#eaf1fb" stroke="#3b6fb0" stroke-width="1.5"/><text x="465" y="120" text-anchor="middle" dominant-baseline="central" font-size="14" fill="#1f2d3d">edm4*_*.cxx macros</text>
  <rect x="680" y="95.0" width="170" height="50" rx="7" fill="#eaf1fb" stroke="#3b6fb0" stroke-width="1.5"/><text x="765" y="120" text-anchor="middle" dominant-baseline="central" font-size="14" fill="#1f2d3d">.csv files</text>
  <rect x="980" y="25.0" width="170" height="50" rx="7" fill="#eaf1fb" stroke="#3b6fb0" stroke-width="1.5"/><text x="1065" y="50" text-anchor="middle" dominant-baseline="central" font-size="14" fill="#1f2d3d">Python plots</text>
  <rect x="980" y="165.0" width="170" height="50" rx="7" fill="#eaf1fb" stroke="#3b6fb0" stroke-width="1.5"/><text x="1065" y="190" text-anchor="middle" dominant-baseline="central" font-size="14" fill="#1f2d3d">AI/ML training</text>
  <rect x="233" y="104" width="103" height="32" rx="4" fill="#eef2f7" stroke="#d7dfe8" stroke-width="1"/><text x="285" y="113" text-anchor="middle" dominant-baseline="central" font-size="11" fill="#51606f"><tspan x="285" dy="0">root macro or</tspan><tspan x="285" dy="14">cmake build</tspan></text>
</svg>
