<svg xmlns="http://www.w3.org/2000/svg" viewBox="0 0 1710 240" role="img" aria-label="Background simulation to CSV pipeline" font-family="-apple-system, BlinkMacSystemFont, 'Segoe UI', Roboto, sans-serif">
  <defs>
    <marker id="ah" viewBox="0 0 10 10" refX="9" refY="5" markerWidth="7" markerHeight="7" orient="auto-start-reverse">
      <path d="M0,0 L10,5 L0,10 z" fill="#8a98a8"/>
    </marker>
  </defs>
  <line x1="190" y1="120" x2="320" y2="120" stroke="#8a98a8" stroke-width="1.7" marker-end="url(#ah)"/>
  <line x1="490" y1="120" x2="620" y2="120" stroke="#8a98a8" stroke-width="1.7" marker-end="url(#ah)"/>
  <line x1="790" y1="120" x2="920" y2="120" stroke="#8a98a8" stroke-width="1.7" marker-end="url(#ah)"/>
  <line x1="1090" y1="120" x2="1220" y2="120" stroke="#8a98a8" stroke-width="1.7" marker-end="url(#ah)"/>
  <line x1="1390" y1="120" x2="1520" y2="50" stroke="#8a98a8" stroke-width="1.7" marker-end="url(#ah)"/>
  <line x1="1390" y1="120" x2="1520" y2="190" stroke="#8a98a8" stroke-width="1.7" marker-end="url(#ah)"/>
  <rect x="20" y="95.0" width="170" height="50" rx="7" fill="#eaf1fb" stroke="#3b6fb0" stroke-width="1.5"/><text x="105" y="120" text-anchor="middle" dominant-baseline="central" font-size="14" fill="#1f2d3d">HEPMC events</text>
  <rect x="320" y="95.0" width="170" height="50" rx="7" fill="#eaf1fb" stroke="#3b6fb0" stroke-width="1.5"/><text x="405" y="120" text-anchor="middle" dominant-baseline="central" font-size="14" fill="#1f2d3d">afterburner ROOT</text>
  <rect x="620" y="95.0" width="170" height="50" rx="7" fill="#eaf1fb" stroke="#3b6fb0" stroke-width="1.5"/><text x="705" y="120" text-anchor="middle" dominant-baseline="central" font-size="14" fill="#1f2d3d">edm4hep .root</text>
  <rect x="920" y="95.0" width="170" height="50" rx="7" fill="#eaf1fb" stroke="#3b6fb0" stroke-width="1.5"/><text x="1005" y="120" text-anchor="middle" dominant-baseline="central" font-size="14" fill="#1f2d3d">edm4eic .root</text>
  <rect x="1220" y="95.0" width="170" height="50" rx="7" fill="#eaf1fb" stroke="#3b6fb0" stroke-width="1.5"/><text x="1305" y="120" text-anchor="middle" dominant-baseline="central" font-size="14" fill="#1f2d3d">.csv (hits)</text>
  <rect x="1520" y="25.0" width="170" height="50" rx="7" fill="#eaf1fb" stroke="#3b6fb0" stroke-width="1.5"/><text x="1605" y="50" text-anchor="middle" dominant-baseline="central" font-size="14" fill="#1f2d3d">AI / ML training</text>
  <rect x="1520" y="165.0" width="170" height="50" rx="7" fill="#eaf1fb" stroke="#3b6fb0" stroke-width="1.5"/><text x="1605" y="190" text-anchor="middle" dominant-baseline="central" font-size="14" fill="#1f2d3d">Python analysis</text>
  <rect x="210" y="111" width="90" height="18" rx="4" fill="#eef2f7" stroke="#d7dfe8" stroke-width="1"/><text x="255" y="120" text-anchor="middle" dominant-baseline="central" font-size="11" fill="#51606f"><tspan x="255" dy="0">afterburner</tspan></text>
  <rect x="530" y="111" width="50" height="18" rx="4" fill="#eef2f7" stroke="#d7dfe8" stroke-width="1"/><text x="555" y="120" text-anchor="middle" dominant-baseline="central" font-size="11" fill="#51606f"><tspan x="555" dy="0">npsim</tspan></text>
  <rect x="820" y="111" width="70" height="18" rx="4" fill="#eef2f7" stroke="#d7dfe8" stroke-width="1"/><text x="855" y="120" text-anchor="middle" dominant-baseline="central" font-size="11" fill="#51606f"><tspan x="855" dy="0">EICrecon</tspan></text>
  <rect x="1097" y="111" width="116" height="18" rx="4" fill="#eef2f7" stroke="#d7dfe8" stroke-width="1"/><text x="1155" y="120" text-anchor="middle" dominant-baseline="central" font-size="11" fill="#51606f"><tspan x="1155" dy="0">trk_hits_to_csv</tspan></text>
</svg>
